<svg width="101" height="34" viewBox="0 0 101 34" fill="none" xmlns="http://www.w3.org/2000/svg">
<rect x="29" width="71" height="33" rx="4" fill="#232323"/>
<rect x="29.4932" y="0.493151" width="71.0137" height="32.4785" rx="3.56319" stroke="#2D2D2D" stroke-width="0.986301"/>
<rect x="95.2975" y="28.6855" width="2.36257" height="2.36257" rx="0.70877" transform="rotate(-180 95.2975 28.6855)" fill="white" fill-opacity="0.1"/>
<rect x="85.3235" y="28.3738" width="2.36257" height="2.36257" rx="0.70877" transform="rotate(-180 85.3235 28.3738)" fill="white" fill-opacity="0.1"/>
<rect x="85.5016" y="22.6744" width="2.36257" height="2.36257" rx="0.70877" transform="rotate(-180 85.5016 22.6744)" fill="white" fill-opacity="0.1"/>
<rect x="75.3496" y="28.062" width="2.36257" height="2.36257" rx="0.70877" transform="rotate(-180 75.3496 28.062)" fill="white" fill-opacity="0.1"/>
<rect x="75.5277" y="22.3625" width="2.36257" height="2.36257" rx="0.70877" transform="rotate(-180 75.5277 22.3625)" fill="white" fill-opacity="0.44"/>
<rect x="90.3105" y="28.5297" width="2.36257" height="2.36257" rx="0.70877" transform="rotate(-180 90.3105 28.5297)" fill="white" fill-opacity="0.1"/>
<rect x="90.4886" y="22.8302" width="2.36257" height="2.36257" rx="0.70877" transform="rotate(-180 90.4886 22.8302)" fill="white" fill-opacity="0.44"/>
<rect x="80.3365" y="28.2179" width="2.36257" height="2.36257" rx="0.70877" transform="rotate(-180 80.3365 28.2179)" fill="white" fill-opacity="0.1"/>
<rect x="80.5146" y="22.5184" width="2.36257" height="2.36257" rx="0.70877" transform="rotate(-180 80.5146 22.5184)" fill="white" fill-opacity="0.1"/>
<rect x="70.3625" y="27.9061" width="2.36257" height="2.36257" rx="0.70877" transform="rotate(-180 70.3625 27.9061)" fill="white" fill-opacity="0.1"/>
<rect x="33" y="4" width="2.36257" height="2.36257" rx="0.70877" fill="white" fill-opacity="0.1"/>
<rect x="42.974" y="4.31177" width="2.36257" height="2.36257" rx="0.70877" fill="white" fill-opacity="0.1"/>
<rect x="42.7959" y="10.0111" width="2.36257" height="2.36257" rx="0.70877" fill="white" fill-opacity="0.1"/>
<rect x="52.9479" y="4.62354" width="2.36257" height="2.36257" rx="0.70877" fill="white" fill-opacity="0.1"/>
<rect x="52.7698" y="10.323" width="2.36257" height="2.36257" rx="0.70877" fill="white" fill-opacity="0.44"/>
<rect x="37.9869" y="4.15588" width="2.36257" height="2.36257" rx="0.70877" fill="white" fill-opacity="0.1"/>
<rect x="37.8088" y="9.85535" width="2.36257" height="2.36257" rx="0.70877" fill="white" fill-opacity="0.44"/>
<rect x="47.9609" y="4.46765" width="2.36257" height="2.36257" rx="0.70877" fill="white" fill-opacity="0.1"/>
<rect x="47.7828" y="10.1671" width="2.36257" height="2.36257" rx="0.70877" fill="white" fill-opacity="0.1"/>
<rect x="57.9349" y="4.77942" width="2.36257" height="2.36257" rx="0.70877" fill="white" fill-opacity="0.1"/>
<rect y="6" width="29" height="2" fill="url(#paint0_linear_22_88)"/>
<rect y="24" width="29" height="2" fill="url(#paint1_linear_22_88)"/>
<rect y="15" width="29" height="2" fill="url(#paint2_linear_22_88)"/>
<defs>
<linearGradient id="paint0_linear_22_88" x1="3.43867e-06" y1="7.01007" x2="29.5" y2="6.98993" gradientUnits="userSpaceOnUse">
<stop stop-color="#232323"/>
<stop offset="0.644231" stop-color="#232323"/>
<stop offset="1" stop-color="#9F9F9F"/>
</linearGradient>
<linearGradient id="paint1_linear_22_88" x1="3.43867e-06" y1="25.0101" x2="29.5" y2="24.9899" gradientUnits="userSpaceOnUse">
<stop stop-color="#232323"/>
<stop offset="0.644231" stop-color="#232323"/>
<stop offset="1" stop-color="#9F9F9F"/>
</linearGradient>
<linearGradient id="paint2_linear_22_88" x1="3.43867e-06" y1="16.0101" x2="29.5" y2="15.9899" gradientUnits="userSpaceOnUse">
<stop stop-color="#232323"/>
<stop offset="0.644231" stop-color="#232323"/>
<stop offset="1" stop-color="#9F9F9F"/>
</linearGradient>
</defs>
</svg>
